<svg width="24" height="24" viewBox="0 0 24 24" fill="none" xmlns="http://www.w3.org/2000/svg">
<path d="M16.2939 14.5786H15.3905L15.0703 14.2699C16.2297 12.9251 16.8669 11.2083 16.8656 9.43282C16.8656 7.96275 16.4297 6.52569 15.613 5.30337C14.7963 4.08105 13.6354 3.12837 12.2772 2.56579C10.9191 2.00322 9.42457 1.85603 7.98275 2.14282C6.54092 2.42962 5.21652 3.13753 4.17702 4.17702C3.13753 5.21652 2.42962 6.54092 2.14282 7.98275C1.85603 9.42457 2.00322 10.9191 2.56579 12.2772C3.12837 13.6354 4.08105 14.7963 5.30337 15.613C6.52569 16.4297 7.96275 16.8656 9.43282 16.8656C11.2739 16.8656 12.9663 16.191 14.2699 15.0703L14.5786 15.3905V16.2939L20.2962 22L22 20.2962L16.2939 14.5786ZM9.43282 14.5786C6.58548 14.5786 4.28702 12.2802 4.28702 9.43282C4.28702 6.58548 6.58548 4.28702 9.43282 4.28702C12.2802 4.28702 14.5786 6.58548 14.5786 9.43282C14.5786 12.2802 12.2802 14.5786 9.43282 14.5786Z" fill="#36392D"/>
</svg>
