<svg width="24" height="24" viewBox="0 0 24 24" fill="none" xmlns="http://www.w3.org/2000/svg">
<path d="M21.8685 20.2399C20.599 17.9302 18.6166 16.1306 16.2405 15.1307C17.4221 14.212 18.2949 12.9313 18.7353 11.4699C19.1757 10.0085 19.1613 8.44048 18.6943 6.98799C18.2272 5.53551 17.3311 4.27218 16.1329 3.37696C14.9346 2.48173 13.4951 2 12.018 2C10.541 2 9.10145 2.48173 7.90323 3.37696C6.70501 4.27218 5.80889 5.53551 5.34182 6.98799C4.87474 8.44048 4.86039 10.0085 5.30079 11.4699C5.74119 12.9313 6.61401 14.212 7.79563 15.1307C5.41952 16.1306 3.43713 17.9302 2.16759 20.2399C2.08893 20.371 2.03649 20.5172 2.01342 20.6697C1.99034 20.8223 1.99708 20.9781 2.03325 21.1279C2.06942 21.2776 2.13427 21.4184 2.22395 21.5417C2.31363 21.6649 2.42631 21.7683 2.55529 21.8455C2.68427 21.9228 2.82691 21.9723 2.97474 21.9913C3.12257 22.0102 3.27257 21.9982 3.41581 21.9559C3.55906 21.9135 3.69264 21.8418 3.8086 21.7449C3.92456 21.6479 4.02054 21.5279 4.09083 21.3917C5.76868 18.3855 8.73178 16.5925 12.018 16.5925C15.3043 16.5925 18.2674 18.3864 19.9453 21.3917C20.0976 21.6456 20.3392 21.8282 20.619 21.9008C20.8989 21.9734 21.1949 21.9303 21.4447 21.7808C21.6945 21.6312 21.8783 21.3868 21.9574 21.0992C22.0365 20.8117 22.0046 20.5035 21.8685 20.2399ZM7.20301 9.29769C7.20301 8.31053 7.48541 7.34554 8.01449 6.52474C8.54357 5.70394 9.29558 5.06421 10.1754 4.68644C11.0552 4.30867 12.0234 4.20983 12.9574 4.40241C13.8914 4.595 14.7494 5.07036 15.4228 5.76839C16.0962 6.46642 16.5548 7.35577 16.7406 8.32396C16.9264 9.29216 16.831 10.2957 16.4666 11.2077C16.1021 12.1198 15.485 12.8993 14.6931 13.4477C13.9013 13.9962 12.9704 14.2889 12.018 14.2889C10.7415 14.2874 9.5176 13.761 8.61492 12.8253C7.71225 11.8896 7.20448 10.621 7.20301 9.29769Z" fill="#36392D"/>
</svg>
