<svg width="24" height="24" viewBox="0 0 24 24" fill="none" xmlns="http://www.w3.org/2000/svg">
<path d="M7.7971 21C7.2657 21 6.81063 20.8138 6.43188 20.4414C6.05314 20.069 5.86409 19.6219 5.86473 19.1C5.86473 18.5775 6.05411 18.13 6.43285 17.7576C6.81159 17.3852 7.26634 17.1994 7.7971 17.2C8.3285 17.2 8.78357 17.3862 9.16232 17.7586C9.54106 18.131 9.73011 18.5781 9.72947 19.1C9.72947 19.6225 9.5401 20.0699 9.16135 20.4423C8.78261 20.8147 8.32786 21.0006 7.7971 21ZM17.4589 21C16.9275 21 16.4725 20.8138 16.0937 20.4414C15.715 20.069 15.5259 19.6219 15.5266 19.1C15.5266 18.5775 15.7159 18.13 16.0947 17.7576C16.4734 17.3852 16.9282 17.1994 17.4589 17.2C17.9903 17.2 18.4454 17.3862 18.8242 17.7586C19.2029 18.131 19.3919 18.5781 19.3913 19.1C19.3913 19.6225 19.2019 20.0699 18.8232 20.4423C18.4444 20.8147 17.9897 21.0006 17.4589 21ZM6.97585 5.8L9.29469 10.55H16.058L18.715 5.8H6.97585ZM4.53623 16.25L7.41063 11.12L3.93237 3.9H2V2H5.1401L6.05797 3.9H22L17.1932 12.45H8.8599L7.7971 14.35H19.3913V16.25H4.53623Z" fill="#36392D"/>
</svg>
