<svg width="32" height="32" viewBox="0 0 32 32" fill="none" xmlns="http://www.w3.org/2000/svg">
<path d="M27 7H22.5V6C22.4967 5.07276 22.1269 4.18443 21.4712 3.52877C20.8156 2.8731 19.9272 2.50329 19 2.5H13C12.0728 2.50329 11.1844 2.8731 10.5288 3.52877C9.8731 4.18443 9.50329 5.07276 9.5 6V7H5C4.33797 7.00329 3.70399 7.26773 3.23586 7.73586C2.76773 8.20399 2.50329 8.83797 2.5 9.5V25.5C2.50329 26.162 2.76773 26.796 3.23586 27.2641C3.70399 27.7323 4.33797 27.9967 5 28H27C27.662 27.9967 28.296 27.7323 28.7641 27.2641C29.2323 26.796 29.4967 26.162 29.5 25.5V9.5C29.4967 8.83797 29.2323 8.20399 28.7641 7.73586C28.296 7.26773 27.662 7.00329 27 7V7ZM12.5 6C12.5 5.86739 12.5527 5.74021 12.6464 5.64645C12.7402 5.55268 12.8674 5.5 13 5.5H19C19.1326 5.5 19.2598 5.55268 19.3536 5.64645C19.4473 5.74021 19.5 5.86739 19.5 6V7H12.5V6ZM26.5 10V14.4C23.2633 16.1071 19.6593 16.9996 16 17C12.3409 16.9981 8.73722 16.1057 5.5 14.4V10H26.5ZM5.5 25V17.7375C8.79931 19.2297 12.3789 20.001 16 20C19.6211 20.001 23.2007 19.2297 26.5 17.7375V25H5.5ZM13 14C13 13.6022 13.158 13.2206 13.4393 12.9393C13.7206 12.658 14.1022 12.5 14.5 12.5H17.5C17.8978 12.5 18.2794 12.658 18.5607 12.9393C18.842 13.2206 19 13.6022 19 14C19 14.3978 18.842 14.7794 18.5607 15.0607C18.2794 15.342 17.8978 15.5 17.5 15.5H14.5C14.1022 15.5 13.7206 15.342 13.4393 15.0607C13.158 14.7794 13 14.3978 13 14V14Z" fill="#6F7A71"/>
</svg>
