<svg width="40" height="40" viewBox="0 0 40 40" fill="none" xmlns="http://www.w3.org/2000/svg">
<path d="M36.6667 9.99984C35.4398 10.5832 34.1173 10.9665 32.747 11.1498C34.1492 10.2665 35.2327 8.8665 35.7426 7.18317C34.4201 8.0165 32.9542 8.59984 31.4086 8.93317C30.1498 7.49984 28.3812 6.6665 26.3735 6.6665C22.6291 6.6665 19.5698 9.8665 19.5698 13.8165C19.5698 14.3832 19.6336 14.9332 19.7451 15.4498C14.0727 15.1498 9.02171 12.2998 5.6597 7.98317C5.07015 9.03317 4.73554 10.2665 4.73554 11.5665C4.73554 14.0498 5.93057 16.2498 7.77888 17.4998C6.64759 17.4998 5.59596 17.1665 4.67181 16.6665V16.7165C4.67181 20.1832 7.03 23.0832 10.153 23.7332C9.15034 24.0202 8.09771 24.0601 7.0778 23.8498C7.51057 25.2706 8.35813 26.5139 9.50134 27.4047C10.6446 28.2956 12.0259 28.7893 13.4513 28.8165C11.0351 30.8172 8.04019 31.8987 4.95861 31.8832C4.41687 31.8832 3.87512 31.8498 3.33337 31.7832C6.36078 33.8165 9.9618 34.9998 13.8178 34.9998C26.3735 34.9998 33.2728 24.0998 33.2728 14.6498C33.2728 14.3332 33.2728 14.0332 33.2569 13.7165C34.5953 12.7165 35.7425 11.4498 36.6667 9.99984Z" fill="#36392D"/>
</svg>
