<svg width="64" height="64" viewBox="0 0 64 64" fill="none" xmlns="http://www.w3.org/2000/svg">
<path d="M44.0606 33.0605L35.0606 42.0605C34.7785 42.338 34.3982 42.4929 34.0025 42.4913C33.6068 42.4896 33.2278 42.3317 32.948 42.0519C32.6682 41.7721 32.5103 41.3931 32.5086 40.9974C32.507 40.6017 32.6619 40.2214 32.9394 39.9393L39.3786 33.4999H21C20.6022 33.4999 20.2206 33.3419 19.9393 33.0606C19.658 32.7793 19.5 32.3977 19.5 31.9999C19.5 31.6021 19.658 31.2206 19.9393 30.9392C20.2206 30.6579 20.6022 30.4999 21 30.4999H39.3787L32.9394 24.0605C32.6619 23.7785 32.507 23.3981 32.5086 23.0024C32.5103 22.6067 32.6682 22.2277 32.948 21.9479C33.2278 21.6681 33.6068 21.5102 34.0025 21.5086C34.3982 21.5069 34.7785 21.6618 35.0606 21.9393L44.0606 30.9393C44.3419 31.2206 44.4999 31.6021 44.4999 31.9999C44.4999 32.3977 44.3419 32.7792 44.0606 33.0605Z" fill="#021327"/>
<rect x="0.5" y="0.5" width="63" height="63" rx="31.5" stroke="#021327"/>
</svg>
