<svg width="64" height="64" viewBox="0 0 64 64" fill="none" xmlns="http://www.w3.org/2000/svg">
<path d="M44.5 31.9999C44.5 32.3977 44.342 32.7793 44.0607 33.0606C43.7794 33.3419 43.3978 33.4999 43 33.4999H24.6212L31.0606 39.9393C31.3381 40.2214 31.493 40.6017 31.4913 40.9974C31.4897 41.3931 31.3318 41.7721 31.052 42.0519C30.7722 42.3317 30.3932 42.4896 29.9975 42.4913C29.6018 42.4929 29.2215 42.338 28.9394 42.0605L19.9394 33.0605C19.6581 32.7792 19.5001 32.3977 19.5001 31.9999C19.5001 31.6021 19.6581 31.2206 19.9394 30.9393L28.9394 21.9393C29.2215 21.6618 29.6018 21.5069 29.9975 21.5086C30.3932 21.5102 30.7722 21.6681 31.052 21.9479C31.3318 22.2277 31.4897 22.6067 31.4913 23.0024C31.493 23.3981 31.3381 23.7785 31.0606 24.0605L24.6214 30.4999H43C43.3978 30.4999 43.7794 30.6579 44.0607 30.9392C44.342 31.2206 44.5 31.6021 44.5 31.9999Z" fill="#021327"/>
<rect x="0.5" y="0.5" width="63" height="63" rx="31.5" stroke="#021327"/>
</svg>
