<svg width="24" height="24" viewBox="0 0 24 24" fill="none" xmlns="http://www.w3.org/2000/svg">
<path d="M12 22C10.6333 22 9.34167 21.7373 8.125 21.212C6.90833 20.6867 5.84567 19.97 4.937 19.062C4.029 18.154 3.31233 17.0917 2.787 15.875C2.26167 14.6583 1.99933 13.3667 2 12C2 10.6167 2.26267 9.32067 2.788 8.112C3.31333 6.90333 4.03 5.84533 4.938 4.938C5.846 4.02933 6.908 3.31267 8.124 2.788C9.34 2.26333 10.632 2.00067 12 2C13.3833 2 14.6793 2.26267 15.888 2.788C17.0967 3.31333 18.1547 4.03 19.062 4.938C19.9707 5.846 20.6873 6.90433 21.212 8.113C21.7367 9.32167 21.9993 10.6173 22 12C22 13.3667 21.7373 14.6583 21.212 15.875C20.6867 17.0917 19.97 18.1543 19.062 19.063C18.154 19.971 17.0957 20.6877 15.887 21.213C14.6783 21.7383 13.3827 22.0007 12 22ZM12 19.95C12.4333 19.35 12.8083 18.725 13.125 18.075C13.4417 17.425 13.7 16.7333 13.9 16H10.1C10.3 16.7333 10.5583 17.425 10.875 18.075C11.1917 18.725 11.5667 19.35 12 19.95ZM9.4 19.55C9.1 19 8.83734 18.429 8.612 17.837C8.38667 17.245 8.19934 16.6327 8.05 16H5.1C5.58333 16.8333 6.18767 17.5583 6.913 18.175C7.63833 18.7917 8.46733 19.25 9.4 19.55ZM14.6 19.55C15.5333 19.25 16.3627 18.7917 17.088 18.175C17.8133 17.5583 18.4173 16.8333 18.9 16H15.95C15.8 16.6333 15.6127 17.246 15.388 17.838C15.1633 18.43 14.9007 19.0007 14.6 19.55ZM4.25 14H7.65C7.6 13.6667 7.56234 13.3373 7.537 13.012C7.51167 12.6867 7.49933 12.3493 7.5 12C7.5 11.65 7.51267 11.3127 7.538 10.988C7.56333 10.6633 7.60067 10.334 7.65 10H4.25C4.16667 10.3333 4.104 10.6627 4.062 10.988C4.02 11.3133 3.99933 11.6507 4 12C4 12.35 4.021 12.6873 4.063 13.012C4.105 13.3367 4.16733 13.666 4.25 14ZM9.65 14H14.35C14.4 13.6667 14.4377 13.3373 14.463 13.012C14.4883 12.6867 14.5007 12.3493 14.5 12C14.5 11.65 14.4873 11.3127 14.462 10.988C14.4367 10.6633 14.3993 10.334 14.35 10H9.65C9.6 10.3333 9.56233 10.6627 9.537 10.988C9.51167 11.3133 9.49933 11.6507 9.5 12C9.5 12.35 9.51267 12.6873 9.538 13.012C9.56333 13.3367 9.60067 13.666 9.65 14ZM16.35 14H19.75C19.8333 13.6667 19.896 13.3373 19.938 13.012C19.98 12.6867 20.0007 12.3493 20 12C20 11.65 19.979 11.3127 19.937 10.988C19.895 10.6633 19.8327 10.334 19.75 10H16.35C16.4 10.3333 16.4377 10.6627 16.463 10.988C16.4883 11.3133 16.5007 11.6507 16.5 12C16.5 12.35 16.4873 12.6873 16.462 13.012C16.4367 13.3367 16.3993 13.666 16.35 14ZM15.95 8H18.9C18.4167 7.16667 17.8127 6.44167 17.088 5.825C16.3633 5.20833 15.534 4.75 14.6 4.45C14.9 5 15.1627 5.571 15.388 6.163C15.6133 6.755 15.8007 7.36733 15.95 8ZM10.1 8H13.9C13.7 7.26667 13.4417 6.575 13.125 5.925C12.8083 5.275 12.4333 4.65 12 4.05C11.5667 4.65 11.1917 5.275 10.875 5.925C10.5583 6.575 10.3 7.26667 10.1 8ZM5.1 8H8.05C8.2 7.36667 8.38767 6.754 8.613 6.162C8.83833 5.57 9.10067 4.99933 9.4 4.45C8.46667 4.75 7.63733 5.20833 6.912 5.825C6.18667 6.44167 5.58267 7.16667 5.1 8Z" fill="#021327"/>
</svg>
