<svg width="24" height="24" viewBox="0 0 24 24" fill="none" xmlns="http://www.w3.org/2000/svg">
<path d="M16.5 21.375C8.84934 21.375 2.625 15.1507 2.625 7.5C2.62647 6.13162 3.12605 4.81056 4.03041 3.78362C4.93478 2.75668 6.18206 2.09409 7.53928 1.91962C7.94235 1.87093 8.35035 1.95396 8.70232 2.15631C9.0543 2.35866 9.33136 2.66946 9.49209 3.04228L11.3755 7.43709C11.4977 7.72124 11.5475 8.03124 11.5205 8.33936C11.4936 8.64747 11.3906 8.9441 11.2209 9.20269L9.78037 11.4039C10.4219 12.6112 11.4123 13.5972 12.6223 14.2334L14.7877 12.7895C15.047 12.6159 15.3456 12.51 15.6563 12.4815C15.967 12.4529 16.2799 12.5026 16.5665 12.626L20.9576 14.5079C21.3306 14.6685 21.6415 14.9455 21.8439 15.2975C22.0463 15.6495 22.1292 16.0576 22.0804 16.4607C21.9059 17.8179 21.2433 19.0652 20.2164 19.9696C19.1894 20.8739 17.8684 21.3735 16.5 21.375ZM7.54012 4.19953C6.78584 4.36273 6.11012 4.77915 5.62528 5.37957C5.14044 5.98 4.87568 6.72826 4.875 7.5C4.87847 10.5821 6.10436 13.5369 8.28372 15.7163C10.4631 17.8956 13.4179 19.1215 16.5 19.125C17.2717 19.1243 18.02 18.8595 18.6204 18.3747C19.2208 17.8898 19.6372 17.2141 19.8005 16.4599L15.867 14.7742L13.689 16.2264C13.419 16.4067 13.1068 16.5137 12.783 16.5369C12.4592 16.5602 12.1349 16.499 11.8418 16.3592C10.0217 15.4771 8.54906 14.0112 7.65872 12.1951C7.5183 11.9038 7.45556 11.5812 7.47659 11.2586C7.49761 10.9359 7.60169 10.6241 7.77872 10.3536L9.22837 8.13863L7.54012 4.19953Z" fill="#021327"/>
</svg>
