<svg width="20" height="20" viewBox="0 0 20 20" fill="none" xmlns="http://www.w3.org/2000/svg">
<g clip-path="url(#clip0_4_99)">
<mask id="mask0_4_99" style="mask-type:alpha" maskUnits="userSpaceOnUse" x="0" y="0" width="20" height="20">
<path fill-rule="evenodd" clip-rule="evenodd" d="M13.6726 8.41964C13.6726 11.3208 11.3207 13.6726 8.4196 13.6726C5.51846 13.6726 3.16663 11.3208 3.16663 8.41964C3.16663 5.5185 5.51846 3.16666 8.4196 3.16666C11.3207 3.16666 13.6726 5.5185 13.6726 8.41964ZM12.5606 13.7544C11.417 14.6433 9.98014 15.1726 8.4196 15.1726C4.69004 15.1726 1.66663 12.1492 1.66663 8.41964C1.66663 4.69007 4.69004 1.66666 8.4196 1.66666C12.1492 1.66666 15.1726 4.69007 15.1726 8.41964C15.1726 9.98018 14.6432 11.4171 13.7543 12.5606L14.6189 13.4251L17.7364 16.5427C18.066 16.8723 18.066 17.4068 17.7364 17.7364C17.4067 18.0661 16.8723 18.0661 16.5426 17.7364L13.4251 14.6189L12.5606 13.7544Z" fill="black"/>
</mask>
<g mask="url(#mask0_4_99)">
<rect width="20" height="20" fill="#E1EFFF"/>
</g>
</g>
<defs>
<clipPath id="clip0_4_99">
<rect width="20" height="20" fill="white"/>
</clipPath>
</defs>
</svg>
