<svg width="24" height="24" viewBox="0 0 24 24" fill="none" xmlns="http://www.w3.org/2000/svg">
<path d="M21.3913 8.66827C21.1619 8.4114 20.8806 8.20546 20.5658 8.06382C20.2511 7.92218 19.9099 7.84801 19.5644 7.84615H15.2234V6.80769C15.2234 5.79783 14.8201 4.82933 14.1022 4.11525C13.3844 3.40117 12.4107 3 11.3955 3C11.2023 2.99927 11.0126 3.05238 10.8481 3.15332C10.6836 3.25426 10.5508 3.399 10.4647 3.57115L7.27194 9.92307H3.73991C3.27917 9.92535 2.83794 10.1084 2.51214 10.4325C2.18633 10.7566 2.00229 11.1955 2 11.6538V19.2692C2.00229 19.7276 2.18633 20.1665 2.51214 20.4905C2.83794 20.8146 3.27917 20.9977 3.73991 21H18.5205C19.1136 20.9986 19.6859 20.7827 20.1308 20.3926C20.5758 20.0026 20.863 19.4649 20.939 18.8798L21.9829 10.5721C22.0234 10.2313 21.9917 9.88578 21.8898 9.55787C21.7879 9.22997 21.6181 8.92693 21.3913 8.66827ZM4.0879 12H6.87176V18.9231H4.0879V12ZM19.9037 10.3125L18.8598 18.6202C18.8511 18.7036 18.8116 18.7808 18.7489 18.8368C18.6862 18.8927 18.6048 18.9235 18.5205 18.9231H8.95966V11.2038L11.9871 5.18077C12.3227 5.30277 12.6126 5.5241 12.8179 5.81497C13.0232 6.10584 13.1341 6.45229 13.1355 6.80769V8.88461C13.1355 9.16003 13.2454 9.42417 13.4412 9.61892C13.637 9.81366 13.9025 9.92307 14.1794 9.92307H19.5644C19.6142 9.92299 19.6634 9.9338 19.7085 9.95474C19.7536 9.97567 19.7935 10.0062 19.8254 10.0442C19.857 10.0808 19.8803 10.1237 19.8938 10.1699C19.9073 10.2162 19.9107 10.2648 19.9037 10.3125Z" fill="#021327"/>
</svg>
