<svg width="143" height="41" viewBox="0 0 143 41" fill="none" xmlns="http://www.w3.org/2000/svg">
<path d="M91.7498 20.3255C91.7498 31.551 82.6006 40.651 71.3145 40.651C60.0283 40.651 50.8791 31.551 50.8791 20.3255C50.8791 9.10003 60.0283 0 71.3145 0C82.6006 0 91.7498 9.10003 91.7498 20.3255Z" fill="#FFFBF5"/>
<path d="M0 40.3654V39.8578H2.04154V18.9493H0V18.4417H11.2285V18.9493H8.54896V39.8578H9.66543C12.0047 39.8578 13.7911 38.9166 15.0245 37.034C16.2579 35.1304 16.8746 32.5922 16.8746 29.4194H17.5126V40.3654H0Z" fill="#D40000"/>
<path d="M33.9526 38.8108C32.4002 40.2491 30.3693 40.9683 27.8599 40.9683C25.3505 40.9683 23.3196 40.2491 21.7672 38.8108C20.2147 37.3513 19.4385 35.4371 19.4385 33.0681C19.4385 30.6991 20.2147 28.7954 21.7672 27.3571C23.3196 25.8977 25.3505 25.1679 27.8599 25.1679C30.3693 25.1679 32.4002 25.8977 33.9526 27.3571C35.505 28.7954 36.2813 30.6991 36.2813 33.0681C36.2813 35.4371 35.505 37.3513 33.9526 38.8108ZM29.391 38.8108C29.6888 37.7321 29.8376 35.8178 29.8376 33.0681C29.8376 30.3184 29.6888 28.4147 29.391 27.3571C29.1146 26.2784 28.6042 25.739 27.8599 25.739C27.1156 25.739 26.5946 26.2784 26.2968 27.3571C26.0204 28.4147 25.8821 30.3184 25.8821 33.0681C25.8821 35.8178 26.0204 37.7321 26.2968 38.8108C26.5946 39.8684 27.1156 40.3972 27.8599 40.3972C28.6042 40.3972 29.1146 39.8684 29.391 38.8108Z" fill="#D40000"/>
<path d="M47.6339 40.0799C48.6759 40.0799 49.5797 39.6674 50.3453 38.8425C51.1109 38.0176 51.6106 36.9917 51.8445 35.7649L51.9083 35.4477H52.4825C52.2911 37.0764 51.6531 38.4089 50.5686 39.4453C49.484 40.4606 48.1442 40.9683 46.5493 40.9683C43.9548 40.9683 41.9133 40.2808 40.4247 38.906C38.936 37.5311 38.1917 35.5957 38.1917 33.0998C38.1917 30.5828 38.9467 28.6368 40.4566 27.2619C41.9877 25.8659 44.0399 25.1679 46.6131 25.1679C48.4207 25.1679 49.803 25.6121 50.76 26.5005C51.7382 27.3889 52.2273 28.3195 52.2273 29.2925C52.2273 30.2655 51.9721 31.0164 51.4617 31.5452C50.9726 32.074 50.3453 32.3384 49.5797 32.3384C48.8141 32.3384 48.1868 32.1057 47.6976 31.6404C47.2298 31.175 46.9959 30.6145 46.9959 29.9588C46.9959 29.2819 47.1873 28.732 47.5701 28.309C47.9741 27.8648 48.4951 27.6427 49.1331 27.6427C50.0263 27.6427 50.6111 28.0657 50.8876 28.9118C50.9726 29.1868 51.0896 29.3242 51.2385 29.3242C51.4298 29.3242 51.5255 29.2185 51.5255 29.007C51.5255 28.9435 51.5043 28.8272 51.4617 28.658C50.8663 26.9235 49.601 26.0563 47.6658 26.0563C47.0916 26.0563 46.6024 26.2149 46.1984 26.5322C45.7943 26.8283 45.486 27.1773 45.2733 27.5792C45.0819 27.9811 44.9331 28.531 44.8267 29.2291C44.6991 30.0963 44.6353 31.175 44.6353 32.4653C44.6353 33.7555 44.646 34.7285 44.6672 35.3842C44.7098 36.0399 44.7842 36.6956 44.8905 37.3513C44.9969 38.007 45.1564 38.5147 45.369 38.8742C45.8369 39.678 46.5918 40.0799 47.6339 40.0799Z" fill="#D40000"/>
<path d="M68.4062 38.8108C66.8537 40.2491 64.8228 40.9683 62.3134 40.9683C59.804 40.9683 57.7731 40.2491 56.2207 38.8108C54.6683 37.3513 53.8921 35.4371 53.8921 33.0681C53.8921 30.6991 54.6683 28.7954 56.2207 27.3571C57.7731 25.8977 59.804 25.1679 62.3134 25.1679C64.8228 25.1679 66.8537 25.8977 68.4062 27.3571C69.9586 28.7954 70.7348 30.6991 70.7348 33.0681C70.7348 35.4371 69.9586 37.3513 68.4062 38.8108ZM63.8446 38.8108C64.1423 37.7321 64.2912 35.8178 64.2912 33.0681C64.2912 30.3184 64.1423 28.4147 63.8446 27.3571C63.5681 26.2784 63.0577 25.739 62.3134 25.739C61.5691 25.739 61.0481 26.2784 60.7504 27.3571C60.4739 28.4147 60.3357 30.3184 60.3357 33.0681C60.3357 35.8178 60.4739 37.7321 60.7504 38.8108C61.0481 39.8684 61.5691 40.3972 62.3134 40.3972C63.0577 40.3972 63.5681 39.8684 63.8446 38.8108Z" fill="#D40000"/>
<path d="M90.9234 33.8296C90.9234 36.1562 90.0515 37.933 88.3077 39.1598C86.5852 40.3654 84.4585 40.9683 81.9279 40.9683C80.8008 40.9683 79.5567 40.7673 78.1957 40.3654C76.8559 39.9636 75.984 39.7626 75.58 39.7626C75.1759 39.7626 74.825 39.8684 74.5273 40.0799C74.2296 40.2703 74.0169 40.4606 73.8893 40.651L73.6979 40.9683H73.1875V31.9576H73.6979C74.102 33.0364 74.4422 33.9036 74.7187 34.5593C75.0164 35.215 75.4098 35.9553 75.899 36.7802C76.4093 37.6051 76.9197 38.2503 77.4301 38.7156C77.9405 39.181 78.5785 39.5828 79.3441 39.9213C80.1309 40.2385 81.0028 40.3972 81.9598 40.3972C82.9168 40.3972 83.7461 40.1116 84.4479 39.5405C85.1497 38.9483 85.5006 38.0599 85.5006 36.8754C85.5006 35.987 85.1178 35.2256 84.3522 34.591C83.778 34.1045 83.1401 33.6921 82.4383 33.3536C81.7365 32.9941 81.141 32.7085 80.6519 32.497C80.1841 32.2643 79.6524 32.0105 79.057 31.7355C78.4828 31.4606 77.8873 31.1433 77.2706 30.7837C76.6752 30.403 76.0478 29.9271 75.3886 29.356C74.0488 28.1926 73.3789 26.5957 73.3789 24.5651C73.3789 22.5345 74.1658 20.9058 75.7395 19.679C77.3344 18.4522 79.3334 17.8388 81.7365 17.8388C82.8636 17.8388 84.0545 18.0292 85.3092 18.4099C86.5852 18.7695 87.4252 18.9493 87.8292 18.9493C88.2333 18.9493 88.5523 18.8647 88.7862 18.6955C89.0414 18.5051 89.2434 18.2196 89.3923 17.8388H89.9027V25.6121H89.3923C88.8394 23.7296 87.9143 22.0586 86.6171 20.5991C85.3198 19.1397 83.8099 18.4099 82.0874 18.4099C79.8119 18.4099 78.6742 19.4781 78.6742 21.6144C78.6742 22.6932 79.0676 23.571 79.8545 24.2478C80.7476 25.0093 82.4383 25.9505 84.9264 27.0716C87.1381 28.0657 88.5097 28.8589 89.0414 29.4511C89.3391 29.7684 89.6581 30.1386 89.9984 30.5616C90.6151 31.3654 90.9234 32.4547 90.9234 33.8296Z" fill="#D40000"/>
<path d="M111.74 40.1751L112.378 40.1434L112.442 40.6193C110.145 40.8731 108.688 41 108.072 41C107.476 41 106.87 40.8837 106.253 40.651C105.658 40.3972 105.19 40.0905 104.85 39.7309C104.531 39.3502 104.286 38.8531 104.116 38.2397C103.84 37.3725 103.702 36.1139 103.702 34.4641C103.702 32.7931 103.223 31.9365 102.266 31.8942C101.841 31.9365 101.352 31.9788 100.799 32.0211V39.8578H102.968V40.3654H92.6644V39.8578H94.7698V18.9493H92.5049V18.4417H94.4189C96.7369 18.4417 98.8635 18.2407 100.799 17.8388V31.4183C103.053 31.249 104.861 30.8154 106.222 30.1174C107.604 29.3983 108.295 28.3936 108.295 27.1033C108.295 26.1726 107.955 25.4535 107.274 24.9458C107.083 24.8189 106.923 24.7555 106.796 24.7555C106.604 24.7555 106.509 24.8506 106.509 25.041C106.509 25.1468 106.572 25.2525 106.7 25.3583C106.849 25.464 106.945 25.5275 106.987 25.5487C107.412 25.9082 107.625 26.3841 107.625 26.9764C107.625 27.5686 107.412 28.0551 106.987 28.4359C106.562 28.8166 106.009 29.007 105.328 29.007C104.669 29.007 104.106 28.7743 103.638 28.309C103.191 27.8225 102.968 27.1985 102.968 26.437C102.968 25.6756 103.244 25.0622 103.797 24.5968C104.35 24.1103 105.041 23.8671 105.871 23.8671C106.7 23.8671 107.402 24.1844 107.976 24.8189C108.571 25.4323 108.869 26.2044 108.869 27.135C108.869 28.8483 107.763 30.1492 105.552 31.0375L105.584 31.1644C106.817 31.1644 107.838 31.4817 108.646 32.1163C109.007 32.3912 109.326 32.8249 109.603 33.4171C109.879 34.0093 110.018 34.8237 110.018 35.8601C110.018 36.8966 110.103 37.7744 110.273 38.4935C110.443 39.2127 110.634 39.678 110.847 39.8895C111.081 40.0799 111.379 40.1751 111.74 40.1751Z" fill="#D40000"/>
<path d="M114.492 26.2784H112.227V25.7707H114.141C116.459 25.7707 118.585 25.5698 120.521 25.1679V39.8578H122.498V40.3654H112.514V39.8578H114.492V26.2784ZM117.49 23.8354C116.661 23.8354 115.948 23.5498 115.353 22.9787C114.779 22.3865 114.492 21.6779 114.492 20.853C114.492 20.0069 114.779 19.2983 115.353 18.7272C115.948 18.135 116.671 17.8388 117.522 17.8388C118.373 17.8388 119.085 18.135 119.659 18.7272C120.233 19.2983 120.521 20.0069 120.521 20.853C120.521 21.6779 120.223 22.3865 119.627 22.9787C119.053 23.5498 118.341 23.8354 117.49 23.8354Z" fill="#D40000"/>
<path d="M125.392 26.2784H123.127V25.7707H125.041C127.359 25.7707 129.485 25.5698 131.421 25.1679V28.2772H131.58C132.409 26.2044 133.898 25.1679 136.046 25.1679C137.875 25.1679 139.161 25.739 139.906 26.8812C140.65 28.0023 141.022 29.6098 141.022 31.7038V39.8578H143V40.3654H133.143V39.8578H135.121V33.0364C135.121 30.8789 135.025 29.3137 134.834 28.3407C134.642 27.3677 134.217 26.8812 133.558 26.8812C132.814 26.8812 132.25 27.6744 131.867 29.2608C131.484 30.826 131.293 32.5605 131.293 34.4641V40.3654H123.414V39.8578H125.392V26.2784Z" fill="#D40000"/>
</svg>
