<svg width="198" height="34" viewBox="0 0 198 34" fill="none" xmlns="http://www.w3.org/2000/svg">
<path d="M12.672 3.6C11.0293 3.6 9.84533 4.47467 9.12 6.224C8.416 7.97333 8.064 10.7253 8.064 14.48C8.064 18.2347 8.416 21.0293 9.12 22.864C9.84533 24.6773 11.0293 25.584 12.672 25.584C13.9947 25.584 15.168 25.1573 16.192 24.304C17.2373 23.4293 17.9947 22.4373 18.464 21.328C18.9547 20.1973 19.2 19.1307 19.2 18.128H19.872C19.7227 20.6667 18.9013 22.672 17.408 24.144C15.9147 25.5947 14.144 26.32 12.096 26.32C8.40533 26.32 5.62133 25.264 3.744 23.152C1.888 21.0187 0.96 18.16 0.96 14.576C0.96 11.7173 1.824 9.12533 3.552 6.8C4.40533 5.66933 5.55733 4.752 7.008 4.048C8.45867 3.344 10.1013 2.992 11.936 2.992C13.0667 2.992 14.1227 3.184 15.104 3.568C16.1067 3.93067 16.8107 4.112 17.216 4.112C17.6213 4.112 17.9413 4.02667 18.176 3.856C18.432 3.664 18.6347 3.376 18.784 2.992H19.2V12.08H18.784C18.5707 11.3547 18.4213 10.8427 18.336 10.544C18.2507 10.224 18.08 9.70133 17.824 8.976C17.568 8.25067 17.344 7.70667 17.152 7.344C16.96 6.96 16.6933 6.49067 16.352 5.936C16.0107 5.36 15.68 4.93333 15.36 4.656C14.5067 3.952 13.6107 3.6 12.672 3.6ZM23.5638 11.504H21.2918V10.992H23.2118C25.5371 10.992 27.6704 10.7893 29.6118 10.384V25.2H31.5958V25.712H21.5798V25.2H23.5638V11.504ZM26.5718 9.04C25.7398 9.04 25.0251 8.752 24.4278 8.176C23.8518 7.57867 23.5638 6.864 23.5638 6.032C23.5638 5.17867 23.8518 4.464 24.4278 3.888C25.0251 3.29067 25.7504 2.992 26.6038 2.992C27.4571 2.992 28.1718 3.29067 28.7478 3.888C29.3238 4.464 29.6118 5.17867 29.6118 6.032C29.6118 6.864 29.3131 7.57867 28.7158 8.176C28.1398 8.752 27.4251 9.04 26.5718 9.04ZM40.3542 24.048V25.712H32.3223V25.2H34.3063V4.112H32.0343V3.6H33.9543C36.2796 3.6 38.4129 3.39733 40.3542 2.992V13.2H40.5143C40.9196 12.176 41.4743 11.4507 42.1783 11.024C42.9036 10.5973 43.8423 10.384 44.9943 10.384C46.9996 10.384 48.4609 11.1307 49.3783 12.624C50.3169 14.096 50.7863 15.9947 50.7863 18.32C50.7863 20.6453 50.2529 22.5653 49.1863 24.08C48.1409 25.5733 46.6156 26.32 44.6103 26.32C42.6263 26.32 41.2609 25.5627 40.5143 24.048H40.3542ZM40.2263 18.352V19.216C40.2263 21.0933 40.4716 22.5547 40.9623 23.6C41.4529 24.624 42.0183 25.136 42.6583 25.136C43.7676 25.136 44.3223 22.8747 44.3223 18.352C44.3223 16.0907 44.2049 14.4373 43.9703 13.392C43.7569 12.3467 43.3196 11.824 42.6583 11.824C41.8903 11.824 41.2929 12.5067 40.8663 13.872C40.4396 15.216 40.2263 16.7093 40.2263 18.352ZM67.27 24.144C65.7127 25.5947 63.6753 26.32 61.158 26.32C58.6407 26.32 56.6033 25.5947 55.046 24.144C53.4887 22.672 52.71 20.7413 52.71 18.352C52.71 15.9627 53.4887 14.0427 55.046 12.592C56.6033 11.12 58.6407 10.384 61.158 10.384C63.6753 10.384 65.7127 11.12 67.27 12.592C68.8273 14.0427 69.606 15.9627 69.606 18.352C69.606 20.7413 68.8273 22.672 67.27 24.144ZM62.694 24.144C62.9927 23.056 63.142 21.1253 63.142 18.352C63.142 15.5787 62.9927 13.6587 62.694 12.592C62.4167 11.504 61.9047 10.96 61.158 10.96C60.4113 10.96 59.8887 11.504 59.59 12.592C59.3127 13.6587 59.174 15.5787 59.174 18.352C59.174 21.1253 59.3127 23.056 59.59 24.144C59.8887 25.2107 60.4113 25.744 61.158 25.744C61.9047 25.744 62.4167 25.2107 62.694 24.144ZM79.9705 16.656C79.9705 14.6507 80.6852 13.104 82.1145 12.016C83.5438 10.928 85.2825 10.384 87.3305 10.384C87.9918 10.384 88.6425 10.448 89.2825 10.576C88.7492 9.97867 88.4825 9.25333 88.4825 8.4C88.4825 7.54667 88.7705 6.81067 89.3465 6.192C89.9438 5.57333 90.6585 5.264 91.4905 5.264C92.3438 5.264 93.0478 5.50933 93.6025 6C94.1572 6.49067 94.4345 7.12 94.4345 7.888C94.4345 8.656 94.2105 9.28533 93.7625 9.776C93.3145 10.2453 92.7492 10.48 92.0665 10.48C91.4052 10.48 90.8505 10.288 90.4025 9.904C89.9758 9.49867 89.7625 8.98667 89.7625 8.368C89.7625 7.74933 89.9758 7.25867 90.4025 6.896C90.7225 6.74667 90.8825 6.576 90.8825 6.384C90.8825 6.192 90.7865 6.096 90.5945 6.096C90.4665 6.096 90.3065 6.16 90.1145 6.288C89.4105 6.82133 89.0585 7.536 89.0585 8.432C89.0585 9.56267 89.7092 10.4587 91.0105 11.12C93.4638 12.1867 94.6905 14.032 94.6905 16.656C94.6905 18.6613 93.9758 20.208 92.5465 21.296C91.1172 22.384 89.3785 22.928 87.3305 22.928C85.9225 22.928 84.6638 22.6827 83.5545 22.192C82.1892 22.768 81.5065 23.3653 81.5065 23.984C81.5065 24.4107 81.6772 24.6987 82.0185 24.848C82.3598 24.976 82.9465 25.04 83.7785 25.04C84.6105 25.04 85.9332 24.8267 87.7465 24.4C89.5812 23.9733 90.7865 23.76 91.3625 23.76C92.5998 23.76 93.5812 24.08 94.3065 24.72C95.0318 25.36 95.3945 26.2027 95.3945 27.248C95.3945 28.8907 94.7012 30.288 93.3145 31.44C91.9278 32.592 90.2638 33.168 88.3225 33.168C86.0185 33.168 84.1412 32.2613 82.6905 30.448C81.6452 30.3627 80.8025 29.968 80.1625 29.264C79.5225 28.56 79.2025 27.7067 79.2025 26.704C79.2025 25.7227 79.5225 24.7947 80.1625 23.92C80.8238 23.0453 81.7412 22.352 82.9145 21.84C80.9518 20.7307 79.9705 19.0027 79.9705 16.656ZM86.5945 22.16C86.8078 22.288 87.0532 22.352 87.3305 22.352C87.6078 22.352 87.8425 22.288 88.0345 22.16C88.2478 22.0107 88.4078 21.7867 88.5145 21.488C88.6425 21.168 88.7385 20.8693 88.8025 20.592C88.8878 20.2933 88.9412 19.8773 88.9625 19.344C88.9838 18.8107 88.9945 18.384 88.9945 18.064C89.0158 17.744 89.0265 17.2747 89.0265 16.656C89.0265 16.0373 89.0158 15.568 88.9945 15.248C88.9945 14.928 88.9838 14.5013 88.9625 13.968C88.9412 13.4347 88.8878 13.0293 88.8025 12.752C88.7385 12.4533 88.6425 12.1547 88.5145 11.856C88.4078 11.536 88.2478 11.312 88.0345 11.184C87.8425 11.0347 87.6078 10.96 87.3305 10.96C87.0532 10.96 86.8078 11.0347 86.5945 11.184C86.4025 11.312 86.2425 11.536 86.1145 11.856C86.0078 12.1547 85.9118 12.4533 85.8265 12.752C85.7625 13.0293 85.7198 13.4347 85.6985 13.968C85.6772 14.5013 85.6558 14.928 85.6345 15.248C85.6345 15.568 85.6345 16.0373 85.6345 16.656C85.6345 17.2747 85.6345 17.744 85.6345 18.064C85.6558 18.384 85.6772 18.8107 85.6985 19.344C85.7198 19.8773 85.7625 20.2933 85.8265 20.592C85.9118 20.8693 86.0078 21.168 86.1145 21.488C86.2425 21.7867 86.4025 22.0107 86.5945 22.16ZM91.1705 29.232C90.5732 29.232 89.3145 29.424 87.3945 29.808C85.4745 30.192 84.1732 30.4053 83.4905 30.448C84.6852 31.8773 86.2958 32.592 88.3225 32.592C89.4318 32.592 90.4665 32.368 91.4265 31.92C92.4078 31.4933 92.8985 30.992 92.8985 30.416C92.8985 29.6267 92.3225 29.232 91.1705 29.232ZM114.017 25.2H116.002V25.712H107.97V23.216H107.81C106.978 25.3067 105.484 26.352 103.33 26.352C101.495 26.352 100.204 25.7867 99.4575 24.656C98.7108 23.504 98.3375 21.872 98.3375 19.76V11.504H96.0655V10.992H97.9855C100.226 10.992 102.316 10.7893 104.258 10.384V18.416C104.258 20.5707 104.354 22.128 104.546 23.088C104.738 24.0267 105.164 24.496 105.826 24.496C106.572 24.496 107.138 23.7707 107.522 22.32C107.906 20.848 108.098 19.1733 108.098 17.296V11.536H105.826V10.992H107.746C109.986 10.992 112.076 10.7893 114.017 10.384V25.2ZM141.657 24.496C142.467 24.496 142.99 23.4293 143.225 21.296L143.801 21.36C143.609 22.9387 143.161 24.1653 142.457 25.04C141.753 25.8933 140.707 26.32 139.321 26.32C136.462 26.32 135.033 24.7627 135.033 21.648V11.44H133.369V10.992H134.265C135.779 10.992 137.006 10.5013 137.945 9.52C138.883 8.51733 139.353 7.35467 139.353 6.032C139.353 4.70933 138.819 3.568 137.753 2.608C136.707 1.62667 135.107 1.136 132.953 1.136C130.819 1.136 129.198 1.66933 128.089 2.736C126.979 3.78133 126.425 4.98667 126.425 6.352C126.425 7.01333 126.574 7.64267 126.873 8.24C127.171 8.816 127.481 9.264 127.801 9.584C128.142 9.904 128.601 10.3093 129.177 10.8C129.774 11.2693 130.201 11.6213 130.457 11.856L128.281 10.928L128.313 10.832C126.606 9.57333 125.753 8.112 125.753 6.448C125.753 4.784 126.403 3.38667 127.705 2.256C129.006 1.104 130.745 0.527998 132.921 0.527998C135.587 0.527998 137.614 1.31733 139.001 2.896C140.387 4.45333 141.081 7.152 141.081 10.992H144.057V11.44H141.081V23.184C141.081 24.0587 141.273 24.496 141.657 24.496ZM130.009 12.112C129.753 11.856 129.294 11.6213 128.633 11.408C127.993 11.1733 127.203 11.056 126.265 11.056C125.326 11.056 124.547 11.2693 123.929 11.696C123.31 12.1013 123.001 12.6453 123.001 13.328C123.001 13.9893 123.31 14.576 123.929 15.088C124.547 15.5787 125.294 16.0267 126.169 16.432C127.043 16.816 127.918 17.2427 128.793 17.712C129.689 18.16 130.446 18.736 131.065 19.44C131.683 20.144 131.993 20.944 131.993 21.84C131.993 23.2053 131.289 24.2933 129.881 25.104C128.494 25.9147 126.403 26.32 123.609 26.32C122.35 26.32 121.07 26.096 119.769 25.648C119.107 25.4133 118.563 25.0507 118.137 24.56C117.731 24.048 117.529 23.4187 117.529 22.672C117.529 21.9253 117.774 21.2853 118.265 20.752C118.755 20.1973 119.385 19.92 120.153 19.92C120.921 19.92 121.539 20.144 122.009 20.592C122.478 21.0187 122.713 21.5733 122.713 22.256C122.713 22.9387 122.51 23.4933 122.105 23.92C121.721 24.3253 121.241 24.528 120.665 24.528C120.11 24.528 119.63 24.3253 119.225 23.92C119.182 23.8773 119.15 23.8453 119.129 23.824C119.107 23.7813 119.086 23.7493 119.065 23.728C119.043 23.7067 119.022 23.6853 119.001 23.664C118.915 23.6213 118.841 23.6 118.777 23.6C118.606 23.6 118.521 23.696 118.521 23.888C118.521 24.08 118.681 24.3147 119.001 24.592C119.342 24.8693 119.897 25.1253 120.665 25.36C121.433 25.5947 122.297 25.712 123.257 25.712C124.238 25.712 125.07 25.552 125.753 25.232C126.457 24.8907 126.809 24.4107 126.809 23.792C126.809 23.152 126.499 22.5653 125.881 22.032C125.262 21.4773 124.505 20.976 123.609 20.528C122.734 20.0587 121.849 19.5787 120.953 19.088C120.057 18.5973 119.299 18.0107 118.681 17.328C118.062 16.624 117.753 15.8667 117.753 15.056C117.753 13.712 118.371 12.6027 119.609 11.728C120.867 10.8533 122.819 10.416 125.465 10.416C127.427 10.416 128.899 10.7467 129.881 11.408C130.862 12.048 131.353 12.9013 131.353 13.968C131.353 14.7573 131.107 15.4293 130.617 15.984C130.126 16.5173 129.497 16.784 128.729 16.784C127.982 16.784 127.374 16.56 126.905 16.112C126.435 15.664 126.201 15.1093 126.201 14.448C126.201 13.7653 126.393 13.2107 126.777 12.784C127.161 12.3573 127.641 12.144 128.217 12.144C128.814 12.144 129.241 12.304 129.497 12.624C129.774 12.9227 129.977 13.072 130.105 13.072C130.297 13.072 130.393 12.976 130.393 12.784C130.393 12.592 130.265 12.368 130.009 12.112ZM160.02 24.144C158.463 25.5947 156.425 26.32 153.908 26.32C151.391 26.32 149.353 25.5947 147.796 24.144C146.239 22.672 145.46 20.7413 145.46 18.352C145.46 15.9627 146.239 14.0427 147.796 12.592C149.353 11.12 151.391 10.384 153.908 10.384C156.425 10.384 158.463 11.12 160.02 12.592C161.577 14.0427 162.356 15.9627 162.356 18.352C162.356 20.7413 161.577 22.672 160.02 24.144ZM155.444 24.144C155.743 23.056 155.892 21.1253 155.892 18.352C155.892 15.5787 155.743 13.6587 155.444 12.592C155.167 11.504 154.655 10.96 153.908 10.96C153.161 10.96 152.639 11.504 152.34 12.592C152.063 13.6587 151.924 15.5787 151.924 18.352C151.924 21.1253 152.063 23.056 152.34 24.144C152.639 25.2107 153.161 25.744 153.908 25.744C154.655 25.744 155.167 25.2107 155.444 24.144ZM177.009 12.112C176.753 11.856 176.294 11.6213 175.633 11.408C174.993 11.1733 174.203 11.056 173.265 11.056C172.326 11.056 171.547 11.2693 170.929 11.696C170.31 12.1013 170.001 12.6453 170.001 13.328C170.001 13.9893 170.31 14.576 170.929 15.088C171.547 15.5787 172.294 16.0267 173.169 16.432C174.043 16.816 174.918 17.2427 175.793 17.712C176.689 18.16 177.446 18.736 178.065 19.44C178.683 20.144 178.993 20.944 178.993 21.84C178.993 23.2053 178.289 24.2933 176.881 25.104C175.494 25.9147 173.403 26.32 170.609 26.32C169.35 26.32 168.07 26.096 166.769 25.648C166.107 25.4133 165.563 25.0507 165.137 24.56C164.731 24.048 164.529 23.4187 164.529 22.672C164.529 21.9253 164.774 21.2853 165.265 20.752C165.755 20.1973 166.385 19.92 167.153 19.92C167.921 19.92 168.539 20.144 169.009 20.592C169.478 21.0187 169.713 21.5733 169.713 22.256C169.713 22.9387 169.51 23.4933 169.105 23.92C168.721 24.3253 168.241 24.528 167.665 24.528C167.11 24.528 166.63 24.3253 166.225 23.92C166.182 23.8773 166.15 23.8453 166.129 23.824C166.107 23.7813 166.086 23.7493 166.065 23.728C166.043 23.7067 166.022 23.6853 166.001 23.664C165.915 23.6213 165.841 23.6 165.777 23.6C165.606 23.6 165.521 23.696 165.521 23.888C165.521 24.08 165.681 24.3147 166.001 24.592C166.342 24.8693 166.897 25.1253 167.665 25.36C168.433 25.5947 169.297 25.712 170.257 25.712C171.238 25.712 172.07 25.552 172.753 25.232C173.457 24.8907 173.809 24.4107 173.809 23.792C173.809 23.152 173.499 22.5653 172.881 22.032C172.262 21.4773 171.505 20.976 170.609 20.528C169.734 20.0587 168.849 19.5787 167.953 19.088C167.057 18.5973 166.299 18.0107 165.681 17.328C165.062 16.624 164.753 15.8667 164.753 15.056C164.753 13.712 165.371 12.6027 166.609 11.728C167.867 10.8533 169.819 10.416 172.465 10.416C174.427 10.416 175.899 10.7467 176.881 11.408C177.862 12.048 178.353 12.9013 178.353 13.968C178.353 14.7573 178.107 15.4293 177.617 15.984C177.126 16.5173 176.497 16.784 175.729 16.784C174.982 16.784 174.374 16.56 173.905 16.112C173.435 15.664 173.201 15.1093 173.201 14.448C173.201 13.7653 173.393 13.2107 173.777 12.784C174.161 12.3573 174.641 12.144 175.217 12.144C175.814 12.144 176.241 12.304 176.497 12.624C176.774 12.9227 176.977 13.072 177.105 13.072C177.297 13.072 177.393 12.976 177.393 12.784C177.393 12.592 177.265 12.368 177.009 12.112ZM195.458 24.144C193.9 25.5947 191.863 26.32 189.345 26.32C186.828 26.32 184.791 25.5947 183.234 24.144C181.676 22.672 180.898 20.7413 180.898 18.352C180.898 15.9627 181.676 14.0427 183.234 12.592C184.791 11.12 186.828 10.384 189.345 10.384C191.863 10.384 193.9 11.12 195.458 12.592C197.015 14.0427 197.794 15.9627 197.794 18.352C197.794 20.7413 197.015 22.672 195.458 24.144ZM190.882 24.144C191.18 23.056 191.33 21.1253 191.33 18.352C191.33 15.5787 191.18 13.6587 190.882 12.592C190.604 11.504 190.092 10.96 189.345 10.96C188.599 10.96 188.076 11.504 187.778 12.592C187.5 13.6587 187.362 15.5787 187.362 18.352C187.362 21.1253 187.5 23.056 187.778 24.144C188.076 25.2107 188.599 25.744 189.345 25.744C190.092 25.744 190.604 25.2107 190.882 24.144Z" fill="#36392D"/>
</svg>
